<svg width="21" height="23" viewBox="0 0 21 23" fill="none" xmlns="http://www.w3.org/2000/svg">
<path d="M7.98208 8.64744C7.57734 8.38997 6.2324 7.49512 6.2324 7.49512C7.36648 5.94051 8.86253 5.33529 10.9304 5.33529C12.3928 5.33529 13.6345 5.80674 14.5211 6.69898C15.408 7.59156 15.9139 8.86791 16.029 10.5001C16.5207 10.6972 16.9747 10.9294 17.3869 11.195C19.0493 12.2664 19.9647 13.8684 19.9647 15.7052C19.9647 19.6089 16.6256 23 10.5813 23C5.39168 23 0 20.1067 0 11.4914C0 2.92512 5.22258 0 10.5667 0C13.0346 0 18.8232 0.349365 21 7.23862L18.9586 7.74611C17.2755 2.83778 13.7466 2.05658 10.511 2.05658C5.16248 2.05658 2.13711 5.17782 2.13711 11.8184C2.13711 17.7725 5.51867 20.9356 10.582 20.9356C14.7476 20.9356 17.8534 18.8609 17.8534 15.8237C17.8534 13.7568 16.0412 12.7671 15.9486 12.7671C15.5947 14.5406 14.646 17.5238 10.4815 17.5238C8.05509 17.5238 5.96313 15.9176 5.96313 13.8129C5.96313 10.8076 8.93791 9.71989 11.2872 9.71989C12.167 9.71989 13.2288 9.77671 13.7816 9.88451C13.7816 8.96856 12.9731 7.40096 10.9307 7.40096C9.05811 7.40064 8.58308 7.98281 7.98208 8.64744ZM11.5745 11.7726C8.51416 11.7726 8.11824 13.023 8.11824 13.8084C8.11824 15.0701 9.68254 15.4883 10.5171 15.4883C12.0471 15.4883 13.6189 15.0818 13.8661 12.0041C13.0902 11.8372 12.512 11.7726 11.5745 11.7726Z" fill="white"/>
</svg>
