<svg width="23" height="26" viewBox="0 0 23 26" fill="none" xmlns="http://www.w3.org/2000/svg">
<path d="M22.7715 6.30429C21.0995 6.30425 19.496 5.64003 18.3138 4.45774C17.1316 3.27546 16.4674 1.67196 16.4674 0H11.9634V17.6369C11.9626 18.441 11.7087 19.2244 11.2377 19.8762C10.7667 20.5279 10.1026 21.0149 9.33937 21.2681C8.57617 21.5213 7.75264 21.5279 6.98549 21.2869C6.21835 21.0459 5.54651 20.5696 5.0652 19.9254C4.58388 19.2813 4.31752 18.502 4.30385 17.698C4.29018 16.894 4.5299 16.1061 4.98903 15.4459C5.44817 14.7858 6.10343 14.2869 6.86194 14.02C7.62045 13.7531 8.44373 13.7316 9.2151 13.9587V9.58046C7.5758 9.35941 5.90808 9.64373 4.43464 10.3955C2.96119 11.1472 1.75214 12.3305 0.968935 13.7875C0.185733 15.2445 -0.134345 16.9057 0.0514431 18.5494C0.237231 20.193 0.920041 21.7409 2.0087 22.9863C3.09735 24.2317 4.54004 25.1153 6.14411 25.5191C7.74818 25.923 9.43728 25.8279 10.9859 25.2465C12.5345 24.6652 13.8688 23.6252 14.8108 22.2654C15.7528 20.9057 16.2575 19.291 16.2576 17.6369L16.389 8.72199C18.2396 10.0805 20.4762 10.8115 22.7719 10.808L22.7715 6.30429Z" fill="white"/>
</svg>
